<svg xmlns="http://www.w3.org/2000/svg" xmlns:xlink="http://www.w3.org/1999/xlink" width="111.667" height="134" viewBox="0 0 156 187.2">
  <defs>
    <linearGradient id="linear-gradient" x1="0.248" y1="107.653" x2="0.882" y2="108.893" gradientUnits="objectBoundingBox">
      <stop offset="0" stop-opacity="0.102"/>
      <stop offset="1" stop-opacity="0"/>
    </linearGradient>
    <linearGradient id="linear-gradient-2" x1="0.092" y1="220.646" x2="0.916" y2="222.305" gradientUnits="objectBoundingBox">
      <stop offset="0" stop-color="#fff" stop-opacity="0.2"/>
      <stop offset="1" stop-color="#fff" stop-opacity="0"/>
    </linearGradient>
  </defs>
  <g id="Layer_1" data-name="Layer 1" transform="translate(-2)">
    <path id="Path_23" data-name="Path 23" d="M158,35.1C158,20.4,91.739,0,80,0S2,20.4,2,35.1C2,45.591,16.422,51.176,24.277,53.446L22.093,59.99c-2.6,2-8.393,7.246-8.393,14.118,0,2.231,1.934,4.672,5.086,7.137-.694,5.92-1.084,15.7-1.162,21.754C10.666,107.476,9.8,115.237,9.8,120.9c0,7.488,6.965,24.289,16.84,26.941C38.683,173.963,56.631,187.2,80,187.2s41.317-13.237,53.36-39.359c9.875-2.652,16.84-19.453,16.84-26.941,0-5.663-.866-13.424-7.816-17.909-.086-6.053-.476-15.834-1.162-21.754,3.151-2.465,5.086-4.906,5.086-7.137,0-6.872-5.8-12.113-8.393-14.118l-2.184-6.544C143.578,51.176,158,45.591,158,35.1Z" transform="translate(0)" fill="#303c42"/>
    <path id="Path_24" data-name="Path 24" d="M4.39,14.89c.25,3.619.655,7.714,1.318,11.778A21.672,21.672,0,0,1,4,19.648,26.474,26.474,0,0,1,4.39,14.89Z" transform="translate(13.6 101.252)" fill="#fee8d7"/>
    <path id="Path_25" data-name="Path 25" d="M104.966,36.254c-3.978,8.7-16.068,35.162-46.433,35.162S16.077,44.951,12.1,36.254l-.757-1.63a3.734,3.734,0,0,0-.858-.959l.1-.1c-2.652-2.652-4.391-9.836-5.429-17.675A121.047,121.047,0,0,0,29.54,42.618a3.848,3.848,0,0,0,3.588.679,3.921,3.921,0,0,0,2.582-2.582,11.62,11.62,0,0,1,11.123-8.3h23.4a11.606,11.606,0,0,1,11.115,8.291,3.89,3.89,0,0,0,2.582,2.582,3.62,3.62,0,0,0,1.147.172,3.953,3.953,0,0,0,2.441-.85A120.684,120.684,0,0,0,111.9,15.88c-1.03,7.839-2.777,15.023-5.429,17.675l.1.1a3.867,3.867,0,0,0-.858.959Z" transform="translate(21.468 107.984)" fill="#e6e6e6"/>
    <path id="Path_26" data-name="Path 26" d="M110.145,18.321c-.959,3.76-2.153,6.848-3.666,8.362l.1.1a3.867,3.867,0,0,0-.858.959l-.757,1.63C101,38.071,88.9,64.536,58.532,64.536S16.077,38.071,12.1,29.374l-.757-1.63a3.734,3.734,0,0,0-.858-.959l.1-.1c-1.521-1.521-2.707-4.6-3.666-8.362C6.35,17.51,5.7,16.7,5.157,15.88c1.03,7.839,2.777,15.023,5.429,17.675l-.1.109a3.867,3.867,0,0,1,.858.959l.757,1.63c3.978,8.7,16.068,35.162,46.433,35.162s42.455-26.465,46.433-35.162l.757-1.63a3.734,3.734,0,0,1,.858-.959l-.1-.1c2.652-2.652,4.391-9.836,5.429-17.675C111.362,16.707,110.714,17.51,110.145,18.321Z" transform="translate(21.468 107.984)" opacity="0.1" style="isolation: isolate"/>
    <path id="Path_27" data-name="Path 27" d="M19.781,26.668C20.444,22.6,20.85,18.509,21.1,14.89a26.409,26.409,0,0,1,.39,4.758A21.672,21.672,0,0,1,19.781,26.668Z" transform="translate(120.911 101.252)" fill="#fee8d7"/>
    <path id="Path_28" data-name="Path 28" d="M114.185,29.689c-4.056,11.669-14.446,25.9-26.7,36.722a19.305,19.305,0,0,0-16.193-8.72h-23.4A19.305,19.305,0,0,0,31.7,66.412C19.447,55.585,9.057,41.358,5,29.689c.023-4.914.312-12.784.772-18.673,15.218,8.174,40.552,15.475,53.82,15.475s38.6-7.3,53.82-15.475C113.873,16.905,114.162,24.775,114.185,29.689Z" transform="translate(20.407 74.909)" fill="#ffe082"/>
    <path id="Path_29" data-name="Path 29" d="M70.62,57.691a19.305,19.305,0,0,1,16.193,8.72c12.254-10.826,22.643-25.054,26.7-36.722-.023-4.914-.312-12.784-.772-18.673C97.522,19.19,72.188,26.491,58.92,26.491s-38.6-7.3-53.82-15.475L51.767,57.691Z" transform="translate(21.08 74.909)" fill="url(#linear-gradient)"/>
    <ellipse id="Ellipse_2" data-name="Ellipse 2" cx="7.8" cy="3.089" rx="7.8" ry="3.089" transform="translate(99.5 106.111)" fill="#303c42"/>
    <path id="Path_30" data-name="Path 30" d="M121.456,15.611C117.463,21.126,82.6,35.6,62.98,35.6S8.5,21.126,4.5,15.611c.312-2.777,3.058-5.561,4.906-7.075,5.717.9,25.311,3.666,53.57,3.666s47.869-2.761,53.57-3.674C118.321,10,121.136,12.8,121.456,15.611Z" transform="translate(17.02 57.997)" fill="#37474f"/>
    <path id="Path_31" data-name="Path 31" d="M121.456,15.611C117.463,21.126,82.6,35.6,62.98,35.6S8.5,21.126,4.5,15.611c.312-2.777,3.058-5.561,4.906-7.075,5.717.9,25.311,3.666,53.57,3.666s47.869-2.761,53.57-3.674C118.321,10,121.136,12.8,121.456,15.611Z" transform="translate(17.02 57.997)" fill="url(#linear-gradient-2)"/>
    <path id="Path_32" data-name="Path 32" d="M123.086,40.094a3.9,3.9,0,0,0-2.87,5.039l2.441,7.309A363.849,363.849,0,0,1,73.22,55.6a365.607,365.607,0,0,1-49.436-3.151l2.441-7.309a3.9,3.9,0,0,0-2.87-5.039C14.83,38.237,3.02,33.1,3,28.542,5.485,20.867,59.446,1,73.22,1c13.728,0,67.337,19.718,70.2,27.448C143.186,33.386,131.206,38.3,123.086,40.094Z" transform="translate(6.78 6.8)" fill="#455a64"/>
    <path id="Path_33" data-name="Path 33" d="M7.442,32.965c2.5-7.66,56.449-27.526,70.223-27.526,11.669,0,52.034,14.219,65.676,23.244.008-.078.07-.156.078-.234C140.557,20.727,86.947,1,73.219,1,59.445,1,5.484,20.868,3,28.527c.008,1.825,1.95,3.736,4.766,5.5A3.576,3.576,0,0,1,7.442,32.965Z" transform="translate(6.773 6.807)" fill="#fff" opacity="0.2" style="isolation: isolate"/>
    <path id="Path_34" data-name="Path 34" d="M38.7,25.681a3.909,3.909,0,0,0-5.039,2.207A9,9,0,0,1,29.5,32.311V17.6h3.9a3.9,3.9,0,1,0,0-7.8H29.5V5.9a3.9,3.9,0,1,0-7.8,0V9.8H17.8a3.9,3.9,0,1,0,0,7.8h3.9V32.311A9.071,9.071,0,0,1,17.535,27.9a3.9,3.9,0,0,0-7.285,2.777c.156.413,4,10.327,15.35,10.327s15.194-9.914,15.35-10.327A3.893,3.893,0,0,0,38.7,25.681Z" transform="translate(54.4 13.6)" fill="#303c42"/>
    <path id="Path_35" data-name="Path 35" d="M29.168,35.195c-11.045,0-19.7-5.7-19.7-12.979a3.011,3.011,0,1,1,6.022,0c0,3.292,5.616,6.95,13.673,6.95s13.658-3.658,13.658-6.95a3.015,3.015,0,1,1,6.029,0C48.855,29.493,40.205,35.195,29.168,35.195Z" transform="translate(50.816 130.54)" fill="#303c42"/>
    <circle id="Ellipse_3" data-name="Ellipse 3" cx="7.8" cy="7.8" r="7.8" transform="translate(44.9 101.4)" fill="#303c42"/>
  </g>
</svg>
