<svg xmlns="http://www.w3.org/2000/svg" width="110.55" height="134" viewBox="0 0 110.55 134">
  <g id="icons8-firefighter" transform="translate(-16.956 -7.4)">
    <path id="Path_94" data-name="Path 94" d="M123.439,60.4H20c0,6.465,5.289,17.632,11.754,17.632h79.93c6.347,0,11.637-10.932,11.754-17.4Z" transform="translate(0.534 9.298)" fill="#75a5cc"/>
    <path id="Path_95" data-name="Path 95" d="M109.754,60.4H98V78.032c6.347,0,11.637-10.932,11.754-17.4Z" transform="translate(14.218 9.298)" fill="#444b54"/>
    <path id="Path_96" data-name="Path 96" d="M112.21,82.084a3.526,3.526,0,0,1,0-7.053c3.291,0,8.111-8.111,8.228-13.87a3.528,3.528,0,1,1,7.053.235C127.256,68.567,121.379,82.084,112.21,82.084Zm-79.93,0C22.995,82.084,17,68.214,17,60.926a3.526,3.526,0,1,1,7.053,0c0,5.407,4.584,14.105,8.228,14.105a3.526,3.526,0,0,1,0,7.053Z" transform="translate(0.008 8.772)" fill="#444b54"/>
    <path id="Path_97" data-name="Path 97" d="M112.105,128.575H31V76.856h1.175V60.4h79.93Z" transform="translate(2.464 9.298)" fill="#f8e390"/>
    <path id="Path_98" data-name="Path 98" d="M65,60.4h41.14v68.175H65Z" transform="translate(8.429 9.298)" fill="#dbc272"/>
    <path id="Path_99" data-name="Path 99" d="M107.633,77.4c0-31.032-15.4-46.9-37.967-46.9S31.7,46.368,31.7,77.4c.353,4.7,1.763,10.932,2.586,16.221a100.286,100.286,0,0,0,7.64,16.926c9.286,15.868,19.865,20.57,27.623,20.57,9.991,0,24.8-7.758,35.263-37.379C107.868,85.158,107.633,81.984,107.633,77.4Z" transform="translate(2.587 4.053)" fill="#efd5be"/>
    <path id="Path_100" data-name="Path 100" d="M32,60.4v3.526l79.93,8.816V60.4Z" transform="translate(2.639 9.298)" fill="#d3b6a1"/>
    <path id="Path_101" data-name="Path 101" d="M101.967,72.154V60.4l-13.635.118s11.989,7.288,3.291,23.039c-3.291,5.995-10.814,2.351-13.518,9.521-2.586,6.818-.118,21.746-10.932,24.1a4.037,4.037,0,0,0-3.174,4h0a4.091,4.091,0,0,0,5.054,4c9.521-2.351,21.393-11.872,30.209-36.791C107.609,89.2,109.254,72.625,101.967,72.154Z" transform="translate(8.253 9.298)" fill="#d3b6a1"/>
    <path id="Path_102" data-name="Path 102" d="M68.65,129.04c-6.582,0-19.277-2.939-30.679-22.216a3.528,3.528,0,0,1,6.112-3.526c3.291,5.642,12.342,18.807,24.567,18.807,5.877,0,20.688-3.409,31.972-35.028V86.96c0-.118,5.525-13.87,5.525-22.333a3.526,3.526,0,0,1,7.053,0c0,9.521-5.525,23.626-6.112,24.919C94.392,125.161,75.937,129.04,68.65,129.04Z" transform="translate(3.604 9.421)" fill="#444b54"/>
    <path id="Path_103" data-name="Path 103" d="M71.086,60.418V83.926h0A5.82,5.82,0,0,1,76.963,89.8h0a3.733,3.733,0,0,0,3.409-5.289h0a50.265,50.265,0,0,1-4.584-21.04V60.3h-4.7ZM28.3,82.986a7.19,7.19,0,0,0,.588,1.411A7.19,7.19,0,0,1,28.3,82.986Z" transform="translate(1.99 9.281)" fill="#d3b6a1"/>
    <path id="Path_104" data-name="Path 104" d="M69.263,20.4A35.216,35.216,0,0,0,34,55.663h70.526A35.216,35.216,0,0,0,69.263,20.4Z" transform="translate(2.99 2.281)" fill="#cadbea"/>
    <path id="Path_105" data-name="Path 105" d="M101.737,54.891A35.406,35.406,0,0,0,84.81,24.8h0c5.995,9.639.47,17.632-10.579,20.1-4.467,1.058-12.577,1.175-20.57,1.881A4.19,4.19,0,0,0,49.9,50.895h0a4.165,4.165,0,0,0,4.114,4.114Z" transform="translate(5.78 3.053)" fill="#75a5cc"/>
    <path id="Path_106" data-name="Path 106" d="M104.814,59.716a3.463,3.463,0,0,1-3.526-3.526,31.72,31.72,0,0,0-61.946-9.639,3.569,3.569,0,0,1-6.818-2.116A38.825,38.825,0,0,1,108.34,56.189,3.536,3.536,0,0,1,104.814,59.716Z" transform="translate(2.703 1.754)" fill="#444b54"/>
    <g id="Group_43" data-name="Group 43" transform="translate(20.534 57.944)">
      <path id="Path_107" data-name="Path 107" d="M123.439,62.154H20A40.138,40.138,0,0,1,48.328,50.4H94.993a40.206,40.206,0,0,1,28.446,11.754Z" transform="translate(-20 -50.4)" fill="#9eb9d3"/>
    </g>
    <g id="Group_44" data-name="Group 44" transform="translate(16.956 54.3)">
      <path id="Path_108" data-name="Path 108" d="M123.973,66.225H20.534a3.541,3.541,0,0,1-3.291-2.233,3.642,3.642,0,0,1,.705-3.879A43.379,43.379,0,0,1,48.862,47.3H95.527a43.786,43.786,0,0,1,30.914,12.812,3.4,3.4,0,0,1,.705,3.879A3.44,3.44,0,0,1,123.973,66.225ZM30.878,59.172h82.633a36.323,36.323,0,0,0-17.984-4.7H48.862A36.986,36.986,0,0,0,30.878,59.172Z" transform="translate(-16.956 -47.3)" fill="#444b54"/>
    </g>
    <g id="Group_45" data-name="Group 45" transform="translate(61.674 28.558)">
      <path id="Path_109" data-name="Path 109" d="M65.579,25.4h0A10.535,10.535,0,0,0,55,35.979V46.558H76.158V35.979A10.535,10.535,0,0,0,65.579,25.4Z" transform="translate(-55 -25.4)" fill="#fff"/>
    </g>
    <g id="Group_46" data-name="Group 46" transform="translate(29.938 83.803)">
      <path id="Path_110" data-name="Path 110" d="M31.526,130A3.463,3.463,0,0,1,28,126.47V75.926a3.526,3.526,0,1,1,7.053,0V126.47A3.536,3.536,0,0,1,31.526,130Z" transform="translate(-28 -72.4)" fill="#444b54"/>
    </g>
    <g id="Group_47" data-name="Group 47" transform="translate(109.867 66.172)">
      <path id="Path_111" data-name="Path 111" d="M99.526,132.628A3.463,3.463,0,0,1,96,129.1V60.926a3.526,3.526,0,1,1,7.053,0V129.1A3.536,3.536,0,0,1,99.526,132.628Z" transform="translate(-96 -57.4)" fill="#444b54"/>
    </g>
    <g id="Group_48" data-name="Group 48" transform="translate(68.727 7.4)">
      <path id="Path_112" data-name="Path 112" d="M64.526,26.207A3.463,3.463,0,0,1,61,22.681V10.926a3.526,3.526,0,0,1,7.053,0V22.681A3.536,3.536,0,0,1,64.526,26.207Z" transform="translate(-61 -7.4)" fill="#444b54"/>
    </g>
  </g>
</svg>
