<svg xmlns="http://www.w3.org/2000/svg" xmlns:xlink="http://www.w3.org/1999/xlink" width="111.667" height="134" viewBox="0 0 111.667 134">
  <defs>
    <linearGradient id="linear-gradient" x1="0.248" y1="107.653" x2="0.882" y2="108.893" gradientUnits="objectBoundingBox">
      <stop offset="0" stop-opacity="0.102"/>
      <stop offset="1" stop-opacity="0"/>
    </linearGradient>
  </defs>
  <g id="Layer_1" data-name="Layer 1" transform="translate(-2)">
    <path id="Path_23" data-name="Path 23" d="M113.667,25.125C113.667,14.6,66.236,0,57.833,0S2,14.6,2,25.125c0,7.51,10.324,11.507,15.946,13.132l-1.563,4.684c-1.859,1.435-6.008,5.187-6.008,10.106,0,1.6,1.385,3.344,3.64,5.109-.5,4.238-.776,11.239-.832,15.572-4.98,3.2-5.6,8.76-5.6,12.814,0,5.36,4.986,17.386,12.054,19.285C28.258,124.525,41.106,134,57.833,134s29.575-9.475,38.2-28.174c7.069-1.9,12.054-13.925,12.054-19.285,0-4.053-.62-9.609-5.594-12.819-.061-4.333-.341-11.334-.832-15.572,2.256-1.764,3.64-3.512,3.64-5.109,0-4.919-4.148-8.671-6.008-10.106l-1.563-4.684C103.343,36.632,113.667,32.635,113.667,25.125Z" transform="translate(0)" fill="#303c42"/>
    <path id="Path_24" data-name="Path 24" d="M4.279,14.89c.179,2.591.469,5.522.944,8.431A15.513,15.513,0,0,1,4,18.3,18.95,18.95,0,0,1,4.279,14.89Z" transform="translate(9.167 68.246)" fill="#fee8d7"/>
    <path id="Path_25" data-name="Path 25" d="M76.6,30.464c-2.847,6.225-11.5,25.17-33.238,25.17s-30.39-18.944-33.238-25.17L9.585,29.3a2.673,2.673,0,0,0-.614-.687l.073-.073c-1.9-1.9-3.143-7.041-3.886-12.652A86.647,86.647,0,0,0,22.61,35.02a2.755,2.755,0,0,0,2.568.486,2.807,2.807,0,0,0,1.848-1.848,8.318,8.318,0,0,1,7.962-5.941h16.75a8.308,8.308,0,0,1,7.956,5.935A2.784,2.784,0,0,0,61.543,35.5a2.591,2.591,0,0,0,.821.123,2.83,2.83,0,0,0,1.748-.609A86.387,86.387,0,0,0,81.565,15.88c-.737,5.611-1.988,10.753-3.886,12.652l.073.073a2.768,2.768,0,0,0-.614.687Z" transform="translate(14.47 72.783)" fill="#e6e6e6"/>
    <path id="Path_26" data-name="Path 26" d="M80.309,17.628c-.687,2.691-1.541,4.9-2.624,5.985l.073.073a2.768,2.768,0,0,0-.614.687L76.6,25.539c-2.842,6.225-11.5,25.17-33.238,25.17s-30.39-18.944-33.238-25.17l-.542-1.167a2.673,2.673,0,0,0-.614-.687l.073-.073c-1.089-1.089-1.937-3.294-2.624-5.985-.408-.581-.871-1.161-1.262-1.748.737,5.611,1.988,10.753,3.886,12.652l-.073.078a2.768,2.768,0,0,1,.614.687l.542,1.167c2.848,6.225,11.5,25.17,33.238,25.17S73.754,36.689,76.6,30.464l.542-1.167a2.673,2.673,0,0,1,.614-.687l-.073-.073c1.9-1.9,3.143-7.041,3.886-12.652C81.18,16.472,80.716,17.047,80.309,17.628Z" transform="translate(14.47 72.783)" opacity="0.1" style="isolation: isolate"/>
    <path id="Path_27" data-name="Path 27" d="M19.781,23.321c.475-2.909.765-5.84.944-8.431A18.9,18.9,0,0,1,21,18.3,15.513,15.513,0,0,1,19.781,23.321Z" transform="translate(81.496 68.246)" fill="#fee8d7"/>
    <path id="Path_28" data-name="Path 28" d="M83.156,24.382c-2.9,8.353-10.34,18.537-19.112,26.286a13.819,13.819,0,0,0-11.591-6.242H35.7a13.819,13.819,0,0,0-11.591,6.242C15.341,42.919,7.9,32.735,5,24.382c.017-3.517.223-9.151.553-13.366,10.893,5.851,29.028,11.077,38.525,11.077S71.711,16.867,82.6,11.016C82.933,15.231,83.14,20.865,83.156,24.382Z" transform="translate(13.755 50.49)" fill="#ffe082"/>
    <path id="Path_29" data-name="Path 29" d="M52,44.427a13.819,13.819,0,0,1,11.591,6.242C72.362,42.919,79.8,32.735,82.7,24.382c-.017-3.517-.223-9.151-.553-13.366C71.257,16.867,53.122,22.093,43.625,22.093S15.993,16.867,5.1,11.016L38.505,44.427Z" transform="translate(14.208 50.49)" fill="url(#linear-gradient)"/>
    <ellipse id="Ellipse_2" data-name="Ellipse 2" cx="5.583" cy="2.211" rx="5.583" ry="2.211" transform="translate(71.792 75.955)" fill="#303c42"/>
    <path id="Path_30" data-name="Path 30" d="M88.219,13.6c-2.859,3.947-27.811,14.31-41.858,14.31S7.362,17.546,4.5,13.6c.223-1.988,2.189-3.981,3.512-5.064a254.5,254.5,0,0,0,38.346,2.624,253.144,253.144,0,0,0,38.346-2.63C85.975,9.579,87.991,11.589,88.219,13.6Z" transform="translate(11.472 39.091)" fill="#37474f"/>
    <path id="Path_31" data-name="Path 31" d="M88.219,13.6c-2.859,3.947-27.811,14.31-41.858,14.31S7.362,17.546,4.5,13.6c.223-1.988,2.189-3.981,3.512-5.064a254.5,254.5,0,0,0,38.346,2.624,253.144,253.144,0,0,0,38.346-2.63C85.975,9.579,87.991,11.589,88.219,13.6Z" transform="translate(11.472 39.091)" fill="#755077"/>
    <path id="Path_32" data-name="Path 32" d="M88.958,28.984A2.791,2.791,0,0,0,86.9,32.59l1.748,5.232a260.447,260.447,0,0,1-35.387,2.261,261.706,261.706,0,0,1-35.387-2.256L19.624,32.6a2.791,2.791,0,0,0-2.055-3.607C11.467,27.655,3.014,23.981,3,20.715,4.778,15.221,43.4,1,53.264,1c9.827,0,48.2,14.115,50.25,19.648C103.346,24.182,94.77,27.7,88.958,28.984Z" transform="translate(4.57 4.583)" fill="#755077"/>
    <path id="Path_33" data-name="Path 33" d="M6.179,23.881c1.787-5.483,40.407-19.7,50.267-19.7,8.353,0,37.246,10.178,47.012,16.638.006-.056.05-.112.056-.168C101.464,15.121,63.089,1,53.263,1,43.4,1,4.777,15.222,3,20.7c.006,1.306,1.4,2.674,3.411,3.936A2.56,2.56,0,0,1,6.179,23.881Z" transform="translate(4.565 4.588)" fill="#fff" opacity="0.2" style="isolation: isolate"/>
    <path id="Path_34" data-name="Path 34" d="M30.547,18.951a2.8,2.8,0,0,0-3.607,1.58A6.444,6.444,0,0,1,23.958,23.7V13.167H26.75a2.792,2.792,0,1,0,0-5.583H23.958V4.792a2.792,2.792,0,1,0-5.583,0V7.583H15.583a2.792,2.792,0,1,0,0,5.583h2.792V23.7a6.493,6.493,0,0,1-2.982-3.16,2.79,2.79,0,0,0-5.215,1.988,11.862,11.862,0,0,0,21.976,0A2.787,2.787,0,0,0,30.547,18.951Z" transform="translate(36.667 9.167)" fill="#303c42"/>
    <path id="Path_35" data-name="Path 35" d="M23.571,30.648c-7.906,0-14.1-4.081-14.1-9.291a2.155,2.155,0,1,1,4.31,0c0,2.356,4.02,4.975,9.788,4.975s9.776-2.619,9.776-4.975a2.158,2.158,0,1,1,4.316,0C37.663,26.567,31.471,30.648,23.571,30.648Z" transform="translate(34.251 87.986)" fill="#303c42"/>
    <circle id="Ellipse_3" data-name="Ellipse 3" cx="5.583" cy="5.583" r="5.583" transform="translate(32.708 72.583)" fill="#303c42"/>
  </g>
</svg>
