<svg id="comparison" xmlns="http://www.w3.org/2000/svg" width="129" height="129" viewBox="0 0 129 129">
  <circle id="Ellipse_4" data-name="Ellipse 4" cx="64.5" cy="64.5" r="64.5" fill="#ffd05c"/>
  <rect id="Rectangle_20" data-name="Rectangle 20" width="87.07" height="7.161" transform="translate(21.201 74.973)" fill="#fafffe"/>
  <rect id="Rectangle_21" data-name="Rectangle 21" width="28.727" height="4.39" transform="translate(50.373 104.65)" fill="#2d434f"/>
  <path id="Path_37" data-name="Path 37" d="M49.545,69H26.24l3.115-26.522a8.618,8.618,0,0,1,8.537-7.627h0a8.618,8.618,0,0,1,8.557,7.605Z" transform="translate(26.844 35.652)" fill="#f75267"/>
  <circle id="Ellipse_5" data-name="Ellipse 5" cx="3.217" cy="3.217" r="3.217" transform="translate(61.52 74.952)" fill="#255366"/>
  <path id="Path_38" data-name="Path 38" d="M19.986,23.965,19.7,23.9h-.02l-.263-.081,1.821-8.193.223.04Z" transform="translate(19.867 15.99)" fill="#2d434f"/>
  <path id="Path_39" data-name="Path 39" d="M14.527,23.985l.263-.061h.04l.243-.081L13.252,15.65l-.2.04Z" transform="translate(13.35 16.01)" fill="#2d434f"/>
  <path id="Path_40" data-name="Path 40" d="M18.075,36.911l-2.954.566c.162.728-.162.931-.162.931a13.392,13.392,0,0,1-1.295,2.023,1.275,1.275,0,0,0,0,.546.991.991,0,0,0,.142.688c.364.627,3.1.3,3.1.3,1.032,0,1.032-.728,1.032-.728,0-.728.465-.829.465-.829.4-.283.283-1.072.2-1.436A1.76,1.76,0,0,0,18.075,36.911Zm8.153,4.006a1.274,1.274,0,0,0,0-.546,13.393,13.393,0,0,1-1.295-2.023s-.3-.2-.162-.931l-2.954-.566a1.76,1.76,0,0,0-.445,2.023c0,.344-.2,1.153.2,1.436,0,0,.526.1.465.829,0,0,0,.769,1.032.728,0,0,2.731.3,3.1-.3A.991.991,0,0,0,26.228,40.916Z" transform="translate(13.949 37.698)" fill="#788d9a"/>
  <path id="Path_41" data-name="Path 41" d="M15.32,15.03l2.731,10.641L20.742,15.03Z" transform="translate(15.672 15.376)" fill="#e6e9ee"/>
  <path id="Path_42" data-name="Path 42" d="M17.9,16.224l.364-1.194H16.24l.364,1.194Z" transform="translate(16.614 15.376)" fill="#f1543f"/>
  <path id="Path_43" data-name="Path 43" d="M18.421,15.62H17.126l-1.4,8.052,2.063,1.4,2.023-1.4Z" transform="translate(16.092 15.979)" fill="#ff7058"/>
  <path id="Path_44" data-name="Path 44" d="M14.512,22.41a40.46,40.46,0,0,0-.1,13.473s.829,13.271,0,16.184c0,0,1.558,2.792,4.329,0,0,0,.283-21.848,1.012-22.718V22.41Z" transform="translate(14.215 22.926)" fill="#47646d"/>
  <path id="Path_45" data-name="Path 45" d="M16.791,22.41l-.121,6.979c.728.931.951,22.718.951,22.718,2.792,2.792,4.329,0,4.329,0-.769-2.954,0-16.184,0-16.184a41.775,41.775,0,0,0-.1-13.473Z" transform="translate(17.054 22.926)" fill="#47646d"/>
  <path id="Path_46" data-name="Path 46" d="M20.306,14.31H15.957l-.607,1.457h5.321Z" transform="translate(15.703 14.639)" fill="#ced5e0"/>
  <path id="Path_47" data-name="Path 47" d="M19.291,36.983c-1.335,2.266-4.693-.142-4.693-.142a8.092,8.092,0,0,1-.121-.87,20.736,20.736,0,0,1,.223-4.552,6.474,6.474,0,0,1,.142-.829h0a22.718,22.718,0,0,0,0-5.846,47.257,47.257,0,0,0-1.78-8.234h0l4.167-1.5.688-.243,1.335,7.485,1.133,3.1.344.931A34.877,34.877,0,0,1,19.291,36.983Z" transform="translate(13.36 15.11)" fill="#58717f"/>
  <path id="Path_48" data-name="Path 48" d="M22.531,24.825a23,23,0,0,0,0,5.846,1.677,1.677,0,0,0,.142.829,20.493,20.493,0,0,1,.2,4.491,2.506,2.506,0,0,1-.1.87c-.1.283-3.358,2.428-4.693.142a34.755,34.755,0,0,1-1.436-10.641l.182-.486,1.315-3.6L19.294,15.9l.1-.647V14.75l.607.223L24.25,16.51h0a47.378,47.378,0,0,0-1.72,8.315Z" transform="translate(17.019 15.089)" fill="#58717f"/>
  <path id="Path_49" data-name="Path 49" d="M20.412,17.193l.668.627a34.391,34.391,0,0,1-4.248,8.76l-.121.121v-.1l.1-.384h0a86.318,86.318,0,0,0,2.165-11.9l2.367,2.529Z" transform="translate(17.094 14.649)" fill="#47646d"/>
  <circle id="Ellipse_6" data-name="Ellipse 6" cx="0.465" cy="0.465" r="0.465" transform="translate(34.047 41.553)" fill="#47646d"/>
  <circle id="Ellipse_7" data-name="Ellipse 7" cx="0.465" cy="0.465" r="0.465" transform="translate(34.047 42.969)" fill="#47646d"/>
  <circle id="Ellipse_8" data-name="Ellipse 8" cx="0.465" cy="0.465" r="0.465" transform="translate(34.047 44.385)" fill="#47646d"/>
  <rect id="Rectangle_22" data-name="Rectangle 22" width="2.731" height="0.668" transform="translate(36.414 37.628)" fill="#47646d"/>
  <rect id="Rectangle_23" data-name="Rectangle 23" width="2.023" height="1.396" transform="translate(39.833 50.231)" fill="#fff"/>
  <rect id="Rectangle_24" data-name="Rectangle 24" width="2.023" height="1.396" transform="translate(25.874 50.231)" fill="#fff"/>
  <path id="Path_50" data-name="Path 50" d="M29.5,35.081H26.667V29.761a21.566,21.566,0,0,1,.3-3.277,8.82,8.82,0,0,0-.2-2.529,52.032,52.032,0,0,1,1.74-8.254h0S29.924,19.221,29.5,35.081Zm-13.979-.02H12.607c-.465-15.86.971-19.421.971-19.421h0a52.477,52.477,0,0,1,1.76,8.254,8.578,8.578,0,0,0-.2,2.529,21.606,21.606,0,0,1,.243,3.3h0C15.52,32.208,15.52,35.061,15.52,35.061Z" transform="translate(12.802 16)" fill="#58717f"/>
  <ellipse id="Ellipse_9" data-name="Ellipse 9" cx="1.861" cy="2.023" rx="1.861" ry="2.023" transform="translate(32.024 26.42)" fill="#f9b54c"/>
  <path id="Path_51" data-name="Path 51" d="M18.53,13.86a2.1,2.1,0,0,1-1.8,2.367,2.61,2.61,0,0,1,1.76,1.76,3.783,3.783,0,0,0,.04-4.127Z" transform="translate(17.115 14.179)" fill="#fff"/>
  <path id="Path_52" data-name="Path 52" d="M16.15,13.86a2.1,2.1,0,0,0,1.8,2.367,2.61,2.61,0,0,0-1.76,1.76A3.884,3.884,0,0,1,16.15,13.86Z" transform="translate(15.935 14.179)" fill="#fff"/>
  <path id="Path_53" data-name="Path 53" d="M16.75,12.08h-.02l.02-.02Z" transform="translate(17.115 12.337)" fill="#324a5e"/>
  <path id="Path_54" data-name="Path 54" d="M26.943,25.24h2.468v2.266l-2.691,1.6a.364.364,0,0,1-.506-.142h0a.364.364,0,0,1,0-.4l1.072-1.295v-.971h-.263l-.3,1.477a.283.283,0,0,1-.283.223h0a.283.283,0,0,1-.283-.344,6.453,6.453,0,0,1,.789-2.407Zm-11.9,0H12.58v2.266l2.691,1.6a.364.364,0,0,0,.506-.142h0a.364.364,0,0,0,0-.4L14.7,27.263v-.971h.263l.3,1.477a.283.283,0,0,0,.283.223h0a.283.283,0,0,0,.283-.344,6.453,6.453,0,0,0-.789-2.407Z" transform="translate(12.869 25.821)" fill="#ebebeb"/>
  <path id="Path_55" data-name="Path 55" d="M14.82,23.894h0a52.477,52.477,0,0,0-1.76-8.254,47.258,47.258,0,0,1,1.76,8.254Z" transform="translate(13.36 16)" fill="#2d434f"/>
  <path id="Path_56" data-name="Path 56" d="M21.89,14.436c-.3,0-.465-.546-.364-1.113s.425-.971.728-.91.465.546.364,1.113S22.193,14.5,21.89,14.436Zm-7-.829c0-.566,0-1.052.364-1.113s.627.344.728.91,0,1.052-.364,1.113S14.991,14.173,14.89,13.607Z" transform="translate(15.233 12.692)" fill="#dadde1"/>
  <path id="Path_57" data-name="Path 57" d="M21.557,11.251H15.487s-1.8,7.02,2.994,7.647c4.795-.688,3.075-7.708,3.075-7.708Z" transform="translate(15.505 11.447)" fill="#ebebeb"/>
  <path id="Path_58" data-name="Path 58" d="M17.315,10.357a2.974,2.974,0,0,0-1.234,1.214c-.991,0-1.234,1.76-1.092,3.075a2.023,2.023,0,0,0,.324.931,14.525,14.525,0,0,1,.162-2.448c.486.971,2.893,1.416,2.893,1.416a11.288,11.288,0,0,1-1.274-1.477,4.39,4.39,0,0,0,3.277,1.254,4.208,4.208,0,0,0,1.618-.223,10.9,10.9,0,0,1,0,1.6c.89-.971.364-3.257.364-3.257A3.6,3.6,0,0,0,19.5,10.2a3.783,3.783,0,0,0-2.225.182Z" transform="translate(15.296 10.338)" fill="#445c6c"/>
  <path id="Path_59" data-name="Path 59" d="M19.072,26.59l-.121.121v-.1a34.391,34.391,0,0,1-4.228-8.739l.668-.627-.87-.4,2.367-2.529a94.634,94.634,0,0,0,2.165,11.9h0Z" transform="translate(14.854 14.639)" fill="#47646d"/>
  <path id="Path_60" data-name="Path 60" d="M47.706,23.965l-.283-.061H47.4l-.263-.081,1.821-8.193.223.04Z" transform="translate(48.225 15.99)" fill="#2d434f"/>
  <path id="Path_61" data-name="Path 61" d="M42.227,23.985l.283-.061h.04l.243-.081L40.972,15.65l-.2.04Z" transform="translate(41.708 16.01)" fill="#2d434f"/>
  <path id="Path_62" data-name="Path 62" d="M45.8,36.911l-2.954.566c.162.728-.162.931-.162.931a13.389,13.389,0,0,1-1.295,2.023,1.275,1.275,0,0,0,0,.546.991.991,0,0,0,.142.688c.364.627,3.1.3,3.1.3,1.032,0,1.032-.728,1.032-.728,0-.728.465-.829.465-.829.4-.283.283-1.072.2-1.436a1.76,1.76,0,0,0-.526-2.063Zm8.153,4.006a1.275,1.275,0,0,0,0-.546,13.392,13.392,0,0,1-1.295-2.023s-.3-.2-.162-.931l-2.954-.566a1.76,1.76,0,0,0-.445,2.023c0,.344-.2,1.153.2,1.436,0,0,.526.1.465.829,0,0,0,.769,1.032.728,0,0,2.731.3,3.1-.3A.991.991,0,0,0,53.948,40.916Z" transform="translate(42.307 37.698)" fill="#788d9a"/>
  <path id="Path_63" data-name="Path 63" d="M43.04,15.03l2.731,10.641L48.462,15.03Z" transform="translate(44.03 15.376)" fill="#e6e9ee"/>
  <path id="Path_64" data-name="Path 64" d="M45.6,16.224l.364-1.194h-2l.364,1.194Z" transform="translate(44.971 15.376)" fill="#f1543f"/>
  <path id="Path_65" data-name="Path 65" d="M46.12,15.62H44.846l-1.4,8.052,2.063,1.4,2.023-1.4Z" transform="translate(44.45 15.979)" fill="#ff7058"/>
  <path id="Path_66" data-name="Path 66" d="M42.232,22.41a40.46,40.46,0,0,0-.1,13.473s.829,13.271,0,16.184c0,0,1.558,2.792,4.329,0,0,0,.283-21.848,1.012-22.718V22.41Z" transform="translate(42.573 22.926)" fill="#47646d"/>
  <path id="Path_67" data-name="Path 67" d="M44.5,22.41l-.121,6.979c.728.931.951,22.718.951,22.718,2.792,2.792,4.329,0,4.329,0-.769-2.954,0-16.184,0-16.184a41.775,41.775,0,0,0,.02-13.514Z" transform="translate(45.401 22.926)" fill="#47646d"/>
  <path id="Path_68" data-name="Path 68" d="M48.037,14.31H43.687l-.627,1.457h5.32Z" transform="translate(44.051 14.639)" fill="#ced5e0"/>
  <path id="Path_69" data-name="Path 69" d="M46.991,36.983c-1.335,2.266-4.693-.142-4.693-.142a8.091,8.091,0,0,1-.121-.87,20.735,20.735,0,0,1,.243-4.552,6.472,6.472,0,0,1,.142-.829h0a22.718,22.718,0,0,0,0-5.846,47.257,47.257,0,0,0-1.78-8.234h0l4.167-1.5.688-.243,1.335,7.485,1.133,3.1.344.931a34.877,34.877,0,0,1-1.457,10.7Z" transform="translate(41.718 15.11)" fill="#58717f"/>
  <path id="Path_70" data-name="Path 70" d="M50.241,24.8a23,23,0,0,0,0,5.846,1.677,1.677,0,0,0,.142.829,20.493,20.493,0,0,1,.2,4.491,2.506,2.506,0,0,1-.1.87c-.1.283-3.358,2.428-4.693.142a34.755,34.755,0,0,1-1.436-10.641l.182-.486,1.315-3.6L47,15.883l.1-.607V14.77l.607.223L51.96,16.53h0a47.378,47.378,0,0,0-1.72,8.274Z" transform="translate(45.367 15.11)" fill="#58717f"/>
  <path id="Path_71" data-name="Path 71" d="M48.132,17.193l.668.627a34.391,34.391,0,0,1-4.248,8.76l-.121.121v-.1l.1-.384h0A86.32,86.32,0,0,0,46.7,14.32l2.387,2.529Z" transform="translate(45.452 14.649)" fill="#47646d"/>
  <circle id="Ellipse_10" data-name="Ellipse 10" cx="0.465" cy="0.465" r="0.465" transform="translate(90.125 41.553)" fill="#47646d"/>
  <circle id="Ellipse_11" data-name="Ellipse 11" cx="0.465" cy="0.465" r="0.465" transform="translate(90.125 42.969)" fill="#47646d"/>
  <circle id="Ellipse_12" data-name="Ellipse 12" cx="0.465" cy="0.465" r="0.465" transform="translate(90.125 44.385)" fill="#47646d"/>
  <rect id="Rectangle_25" data-name="Rectangle 25" width="2.731" height="0.668" transform="translate(92.472 37.628)" fill="#47646d"/>
  <rect id="Rectangle_26" data-name="Rectangle 26" width="2.023" height="1.396" transform="translate(95.891 50.231)" fill="#fff"/>
  <rect id="Rectangle_27" data-name="Rectangle 27" width="2.023" height="1.396" transform="translate(81.952 50.231)" fill="#fff"/>
  <path id="Path_72" data-name="Path 72" d="M57.219,35.081H54.387V29.761a21.565,21.565,0,0,1,.3-3.277,8.82,8.82,0,0,0-.2-2.529,52.032,52.032,0,0,1,1.74-8.254h0S57.624,19.221,57.219,35.081Zm-14.04-.02H40.327C39.862,19.2,41.3,15.64,41.3,15.64h0a52.476,52.476,0,0,1,1.76,8.254,8.577,8.577,0,0,0-.2,2.529,21.606,21.606,0,0,1,.243,3.3h0C43.2,32.208,43.179,35.061,43.179,35.061Z" transform="translate(41.16 16)" fill="#58717f"/>
  <ellipse id="Ellipse_13" data-name="Ellipse 13" cx="1.861" cy="2.023" rx="1.861" ry="2.023" transform="translate(88.102 26.42)" fill="#f9b54c"/>
  <path id="Path_73" data-name="Path 73" d="M46.25,13.86a2.1,2.1,0,0,1-1.8,2.367,2.61,2.61,0,0,1,1.76,1.76,3.783,3.783,0,0,0,.04-4.127Z" transform="translate(45.473 14.179)" fill="#fff"/>
  <path id="Path_74" data-name="Path 74" d="M43.87,13.86a2.1,2.1,0,0,0,1.8,2.367,2.61,2.61,0,0,0-1.76,1.76A3.884,3.884,0,0,1,43.87,13.86Z" transform="translate(44.293 14.179)" fill="#fff"/>
  <path id="Path_75" data-name="Path 75" d="M44.47,12.08h-.02l.02-.02Z" transform="translate(45.473 12.337)" fill="#324a5e"/>
  <path id="Path_76" data-name="Path 76" d="M54.663,25.24h2.468v2.266l-2.691,1.6a.364.364,0,0,1-.506-.142h0a.364.364,0,0,1,0-.4l1.072-1.295v-.971h-.263l-.3,1.477a.283.283,0,0,1-.283.223h0a.283.283,0,0,1-.283-.344,6.453,6.453,0,0,1,.789-2.407Zm-11.9,0H40.3v2.266l2.691,1.6a.364.364,0,0,0,.506-.142h0a.364.364,0,0,0,0-.4l-1.072-1.295v-.971h.263l.3,1.477a.283.283,0,0,0,.283.223h0a.283.283,0,0,0,.283-.344,6.453,6.453,0,0,0-.789-2.407Z" transform="translate(41.227 25.821)" fill="#ebebeb"/>
  <path id="Path_77" data-name="Path 77" d="M42.54,23.894h0a52.477,52.477,0,0,0-1.76-8.254,47.257,47.257,0,0,1,1.76,8.254Z" transform="translate(41.718 16)" fill="#2d434f"/>
  <path id="Path_78" data-name="Path 78" d="M49.61,14.436c-.3,0-.465-.546-.364-1.113s.425-.971.728-.91.465.546.364,1.113S49.913,14.5,49.61,14.436Zm-7-.829c0-.566,0-1.052.364-1.113s.627.344.728.91,0,1.052-.364,1.113S42.711,14.173,42.61,13.607Z" transform="translate(43.59 12.692)" fill="#dadde1"/>
  <path id="Path_79" data-name="Path 79" d="M49.221,11.22H43.152s-1.72,7.02,3.075,7.708C51.021,18.24,49.3,11.22,49.3,11.22Z" transform="translate(43.838 11.478)" fill="#ebebeb"/>
  <path id="Path_80" data-name="Path 80" d="M45.035,10.357A2.974,2.974,0,0,0,43.8,11.571c-.991,0-1.234,1.76-1.092,3.075a2.023,2.023,0,0,0,.324.931,14.526,14.526,0,0,1,.162-2.448c.486.971,2.893,1.416,2.893,1.416a11.288,11.288,0,0,1-1.274-1.477,4.39,4.39,0,0,0,3.277,1.254,4.208,4.208,0,0,0,1.618-.223,10.9,10.9,0,0,1,0,1.6c.89-.971.364-3.257.364-3.257A3.6,3.6,0,0,0,47.22,10.2a3.783,3.783,0,0,0-2.225.182Z" transform="translate(43.653 10.338)" fill="#445c6c"/>
  <path id="Path_81" data-name="Path 81" d="M46.792,26.59l-.121.121v-.1a34.391,34.391,0,0,1-4.228-8.739l.668-.627-.87-.4,2.367-2.529a94.636,94.636,0,0,0,2.165,11.9h0Z" transform="translate(43.212 14.639)" fill="#47646d"/>
</svg>
