<svg xmlns="http://www.w3.org/2000/svg" width="340.135" height="163.561" viewBox="0 0 340.135 163.561">
  <g id="Group_33" data-name="Group 33" transform="translate(-127.325 -514.814)">
    <path id="Path_82" data-name="Path 82" d="M205.857,583.426c5.114,11.855,9.863,21.188,13.6,28.74,12.856-1.2,23.2-2.833,31.534-4.049,2.831-12.6,4.473-22.939,5.9-31.239-11.107-6.586-20.435-11.345-27.892-15.263C219.3,570.144,211.886,577.545,205.857,583.426ZM225.9,626.617l-.818,1.208c-1.081-1.918-3.382-5.35-6.561-10.71-7.343,1.1-14.856,2.077-21.988,2.761-61.631,5.564-56.608-3.247-34.189-22.443,9.472-8.108,16.868-12.1,19.4-9.136a147.485,147.485,0,0,0-13.524,12.787c-8.524,9.011-11.061,12.457,12.233,12.681,13.451.129,25.171-.425,35.385-1.28-1.308-2.32-2.721-4.907-4.219-7.782-2.936-5.42-6.151-11.5-9.349-17.818a95.325,95.325,0,0,1-8.171,7.142l-1.4-.406c1.49-1.618,4.043-4.869,8.157-9.549-3.317-6.642-6.568-13.486-9.42-20.056-24.338-56.895-14.4-54.842,10.778-39.45,10.638,6.5,16.726,12.3,14.687,15.629a147.245,147.245,0,0,0-16.341-8.91c-11.2-5.324-15.265-6.671-8.281,15.551,4.035,12.832,8.185,23.807,12.153,33.259,1.8-1.962,3.827-4.106,6.1-6.421,4.244-4.464,9.033-9.4,14.058-14.394a95.845,95.845,0,0,1-9.318-5.564l-.048-1.456c2,.917,5.881,2.34,11.6,4.806,5.294-5.207,10.8-10.412,16.164-15.158,46.593-40.725,47.71-30.643,40.852-1.938-2.9,12.126-6.53,19.709-10.327,18.8a147.072,147.072,0,0,0,3.424-18.294c1.6-12.3,1.628-16.581-17.348-3.069-10.957,7.8-20.114,15.139-27.877,21.834,2.423,1.108,5.087,2.37,7.99,3.815,5.559,2.659,11.732,5.685,18.037,8.92a95.612,95.612,0,0,1,2.412-10.581l1.371-.494c-.255,2.186-.408,6.316-.988,12.52,6.588,3.426,13.24,7.051,19.412,10.689,53.131,31.724,43.889,35.9,14.468,38.251-12.429.992-20.762-.122-21.069-4.01a147.256,147.256,0,0,0,18.458-2.4c12.193-2.277,16.27-3.574-2.442-17.448-10.808-8.01-20.616-14.449-29.381-19.763-.3,2.646-.684,5.57-1.16,8.778-.809,6.107-1.782,12.915-2.912,19.909a95.774,95.774,0,0,1,10.809-.977l.9,1.152c-2.16.434-6.134,1.562-12.215,2.929-1.222,7.324-2.613,14.771-4.168,21.766-13.754,60.33-20.583,52.831-31.908,25.579-4.786-11.516-6.3-19.783-2.7-21.277a147.235,147.235,0,0,0,7.984,16.813c5.934,10.892,8.431,14.369,15.841-7.714,4.278-12.754,7.373-24.069,9.717-34.051-2.611.529-5.509,1.074-8.707,1.611-6.058,1.117-12.833,2.3-19.835,3.384A95.749,95.749,0,0,1,225.9,626.617Z" fill="#e50019"/>
    <path id="Path_83" data-name="Path 83" d="M158.4,678.375q-4.606,0-4.6-4.952l-.059-18.774a1.8,1.8,0,0,0-.634-1.382,1.86,1.86,0,0,0-1.5-.575l-6.19.346c-1.113.037-6.708.385-7.551,1.034a3.661,3.661,0,0,0-1.382,2.535L134.7,674.978q-.288,3.165-4.147,3.165a3.257,3.257,0,0,1-2.188-.918,2.906,2.906,0,0,1-1.037-2.131V634.725q0-4.951,4.607-4.952a4.2,4.2,0,0,1,3.34,1.383,5.213,5.213,0,0,1,1.21,3.569v11.633q0,2.129,1.842,2.129h13.57q1.844,0,1.842-2.129l.059-11.633q0-4.951,4.6-4.952a4.2,4.2,0,0,1,3.34,1.383,5.218,5.218,0,0,1,1.21,3.569v38.7a5.2,5.2,0,0,1-1.267,3.57A4.142,4.142,0,0,1,158.4,678.375Z" fill="#fff" fill-rule="evenodd"/>
    <path id="Path_84" data-name="Path 84" d="M451.623,678.143q-2.074,0-3.341-2.417l-17.427-24.308Q429.586,649,428.493,649q-1.441,0-1.439,1.958v22.467a5.2,5.2,0,0,1-1.269,3.57,4.133,4.133,0,0,1-3.281,1.382q-4.608,0-4.607-4.952V632.94q0-3.284,3.4-3.283,2.361,0,3.743,2.764l19.1,26.547c.154.269.5.4,1.039.4.227,0,.344-.268.344-.8v-23.84q0-4.951,4.666-4.952a4.372,4.372,0,0,1,3.394,1.383,5.061,5.061,0,0,1,1.269,3.569v40.483a2.729,2.729,0,0,1-.98,2.131A3.421,3.421,0,0,1,451.623,678.143Z" fill="#fff" fill-rule="evenodd"/>
    <path id="Path_85" data-name="Path 85" d="M289.531,678.143H266.094a3.543,3.543,0,0,1-2.419-.977,3.065,3.065,0,0,1-1.037-2.3V632.94q0-3.167,3.456-3.167h22.459q3.628,0,3.8,2.994a2.674,2.674,0,0,1-1.207,2.475,4.239,4.239,0,0,1-2.592.808H269.582c.462.575,2.212.969,2.212,4.1v6.209q0,2.129,1.843,2.129h11.748q3.168,0,3.168,2.3,0,1.961-2.938,2.476l-9.443,1.5q-4.379.688-4.378,3.512v13.59h17.623a4.769,4.769,0,0,1,2.706.807,2.572,2.572,0,0,1,1.267,2.3,2.75,2.75,0,0,1-1.208,2.361A4.669,4.669,0,0,1,289.531,678.143Z" fill="#fff" fill-rule="evenodd"/>
    <path id="Path_86" data-name="Path 86" d="M328.6,678.143H307.133a3.543,3.543,0,0,1-2.42-.977,3.07,3.07,0,0,1-1.035-2.3V634.725q0-4.951,4.6-4.952a4.2,4.2,0,0,1,3.342,1.383,5.223,5.223,0,0,1,1.21,3.569l-.167,31.667c0,1.574.059,4.182-2.423,5.466l18.233.01a3.371,3.371,0,0,1,2.3.863,2.561,2.561,0,0,1,1.037,2.131,3.323,3.323,0,0,1-.922,2.363A3.126,3.126,0,0,1,328.6,678.143Z" fill="#fff" fill-rule="evenodd"/>
    <path id="Path_87" data-name="Path 87" d="M355.588,678.212h-17.5q-3.566,0-3.338-3.05.174-2.247,3.224-2.476l16.286-1.228a6.913,6.913,0,0,0,4.048-1.783c1.267-1.231,1.537-3.474,1.537-5.278a6.111,6.111,0,0,0-1.613-4.432,5.337,5.337,0,0,0-3.856-1.5l-7.306-.038c-8.52,0-12.78-4.3-12.78-14.357q0-14.219,12.378-14.219h12.373q3.971,0,3.973,3.224,0,2.937-3.973,2.937H347.373c-3.494,0-5.6,2.426-5.6,6.186,0,3.84,2.091,5.758,5.547,5.758h7.7q6.275,0,9.5,4.375c1.956,2.611,2.935,5.575,2.935,9.99q0,6.909-2.764,11.111A10.261,10.261,0,0,1,355.588,678.212Z" fill="#fff" fill-rule="evenodd"/>
    <path id="Path_88" data-name="Path 88" d="M394.221,657.639l-3.8-9.136c-.27-.7-.5-1.037-.921-1.037-.23,0-.424.23-.575.691L382.3,662.55h15.689c-1.314-.732-1.956-.654-3.462-4.186ZM387,633.622q1.036-3.855,3.8-3.856c1.5,0,2.541,1.726,3.338,3.741l16.2,38.928a4.015,4.015,0,0,1,.173,1.267,4.093,4.093,0,0,1-1.326,3.169,4.808,4.808,0,0,1-3.281,1.208q-3.573,0-4.493-3.11l-3.229-7.775a2.206,2.206,0,0,1-.356.029H380.206l-4.246,9.071a2.311,2.311,0,0,1-2.358,1.842,1.551,1.551,0,0,1-1.728-1.785,4.635,4.635,0,0,1,.113-.978Z" fill="#fff"/>
    <path id="Path_89" data-name="Path 89" d="M194.321,657.639l-3.8-9.136c-.269-.7-.5-1.037-.92-1.037q-.348,0-.578.691L182.4,662.55h15.687c-1.312-.732-1.954-.654-3.459-4.186Zm-7.22-24.017q1.037-3.855,3.8-3.856c1.5,0,2.541,1.726,3.339,3.741l16.2,38.928a4.01,4.01,0,0,1,.175,1.267,4.093,4.093,0,0,1-1.326,3.169,4.81,4.81,0,0,1-3.281,1.208q-3.573,0-4.493-3.11l-3.23-7.775a2.185,2.185,0,0,1-.355.029H180.306l-4.246,9.071a2.31,2.31,0,0,1-2.358,1.842,1.553,1.553,0,0,1-1.73-1.785,4.644,4.644,0,0,1,.115-.978Z" fill="#fff"/>
    <g id="Group_32" data-name="Group 32">
      <path id="Path_90" data-name="Path 90" d="M462.91,616.165a4.551,4.551,0,1,1-4.55,4.551A4.55,4.55,0,0,1,462.91,616.165Zm0,.963a3.589,3.589,0,1,0,3.589,3.588A3.588,3.588,0,0,0,462.91,617.128Z" fill="#fff"/>
      <path id="Path_91" data-name="Path 91" d="M461.25,618.112h1.3a1.851,1.851,0,0,1,1.234.385,1.3,1.3,0,0,1,.462,1.053,1.259,1.259,0,0,1-.864,1.271,2.257,2.257,0,0,1,.448.4,8.152,8.152,0,0,1,.7,1.021c.167.272.312.491.433.659l.271.37h-.879l-.051-.068-.182-.272c-.052-.072-.108-.163-.173-.273-.228-.363-.391-.617-.494-.764a3.166,3.166,0,0,0-.649-.719,1.066,1.066,0,0,0-.621-.151h-.2v2.247h-.737Zm.737.628v1.628h.286a3.854,3.854,0,0,0,.531-.031.767.767,0,0,0,.492-.258.8.8,0,0,0,.187-.537.685.685,0,0,0-.392-.68,2.186,2.186,0,0,0-.878-.122Z" fill="#fff" fill-rule="evenodd"/>
    </g>
  </g>
</svg>
