<svg xmlns="http://www.w3.org/2000/svg" width="248.644" height="15.928" viewBox="0 0 248.644 15.928"><path d="M16.5-15.4h1.32V0h-1.3V-13.266L10.142-4.6H9.834l-6.38-8.668V0h-1.3V-15.4h1.32L9.988-6.534Zm9.746,4.334a5.336,5.336,0,0,1,4.191,1.683A5.674,5.674,0,0,1,31.724-4.95h-9.68a4.328,4.328,0,0,0,1.309,2.926,4.225,4.225,0,0,0,3,1.078,5.665,5.665,0,0,0,2.2-.44,3.778,3.778,0,0,0,1.606-1.166l.858.748A5.119,5.119,0,0,1,29.007-.3a6.646,6.646,0,0,1-2.673.539,5.372,5.372,0,0,1-4.015-1.584,5.6,5.6,0,0,1-1.551-4.092,5.6,5.6,0,0,1,1.518-4.059A5.255,5.255,0,0,1,26.246-11.066Zm.022,1.144a4.13,4.13,0,0,0-2.915,1.045A4.259,4.259,0,0,0,22.044-6.05h8.47a3.69,3.69,0,0,0-1.188-2.805A4.353,4.353,0,0,0,26.268-9.922ZM39.16-11a4.079,4.079,0,0,1,2.354.66l-.55,1.078a3.463,3.463,0,0,0-1.848-.528,3.093,3.093,0,0,0-2.508,1.221,4.681,4.681,0,0,0-.99,3.047V0H34.364V-10.868h1.144L35.53-8.6a4.458,4.458,0,0,1,1.518-1.771A3.739,3.739,0,0,1,39.16-11ZM51.92,0H50.182L44.616-5.126V0H43.362V-15.4h1.254v9.46l4.994-4.928h1.65l-5.412,5.28Zm6.028-11.066a5.336,5.336,0,0,1,4.191,1.683A5.674,5.674,0,0,1,63.426-4.95h-9.68a4.328,4.328,0,0,0,1.309,2.926,4.225,4.225,0,0,0,3,1.078,5.665,5.665,0,0,0,2.2-.44,3.778,3.778,0,0,0,1.606-1.166l.858.748A5.119,5.119,0,0,1,60.709-.3a6.646,6.646,0,0,1-2.673.539,5.372,5.372,0,0,1-4.015-1.584A5.6,5.6,0,0,1,52.47-5.434a5.6,5.6,0,0,1,1.518-4.059A5.255,5.255,0,0,1,57.948-11.066Zm.022,1.144a4.13,4.13,0,0,0-2.915,1.045A4.259,4.259,0,0,0,53.746-6.05h8.47a3.69,3.69,0,0,0-1.188-2.805A4.353,4.353,0,0,0,57.97-9.922Zm15.884-.946v.572L66.792-1.188h7.062V0h-9V-.594L71.874-9.68H65.208v-1.188ZM77.77-13.5a1,1,0,0,1-.726.275.967.967,0,0,1-.715-.275.967.967,0,0,1-.275-.715.921.921,0,0,1,.286-.693.977.977,0,0,1,.7-.275,1,1,0,0,1,.726.275.921.921,0,0,1,.286.693A.947.947,0,0,1,77.77-13.5ZM76.428,0V-10.868h1.254V0ZM98.494-15.4,92.378-6.138V0h-1.3V-6.182L85.03-15.4h1.562l5.17,7.964,5.17-7.964ZM103.2.22a5.416,5.416,0,0,1-4.048-1.6,5.561,5.561,0,0,1-1.562-4.059,5.561,5.561,0,0,1,1.562-4.059,5.416,5.416,0,0,1,4.048-1.6,5.425,5.425,0,0,1,4.037,1.6,5.54,5.54,0,0,1,1.573,4.059,5.54,5.54,0,0,1-1.573,4.059A5.425,5.425,0,0,1,103.2.22Zm0-1.188a4.157,4.157,0,0,0,3.124-1.276,4.41,4.41,0,0,0,1.232-3.19,4.41,4.41,0,0,0-1.232-3.19A4.157,4.157,0,0,0,103.2-9.9a4.148,4.148,0,0,0-3.135,1.276,4.432,4.432,0,0,0-1.221,3.19,4.432,4.432,0,0,0,1.221,3.19A4.148,4.148,0,0,0,103.2-.968Zm13.706-10.054a4.452,4.452,0,0,1,3.377,1.276A4.914,4.914,0,0,1,121.506-6.2V0h-1.254V-6.138a3.876,3.876,0,0,0-.9-2.761,3.367,3.367,0,0,0-2.574-.957,3.82,3.82,0,0,0-2.838,1.111,3.8,3.8,0,0,0-1.1,2.783V0h-1.254V-10.868h1.144l.022,1.958a4.4,4.4,0,0,1,1.738-1.551A5.248,5.248,0,0,1,116.908-11.022Zm12.716-.044a5.336,5.336,0,0,1,4.191,1.683A5.674,5.674,0,0,1,135.1-4.95h-9.68a4.328,4.328,0,0,0,1.309,2.926,4.225,4.225,0,0,0,3,1.078,5.665,5.665,0,0,0,2.2-.44,3.778,3.778,0,0,0,1.606-1.166l.858.748A5.119,5.119,0,0,1,132.385-.3a6.646,6.646,0,0,1-2.673.539A5.372,5.372,0,0,1,125.7-1.342a5.6,5.6,0,0,1-1.551-4.092,5.6,5.6,0,0,1,1.518-4.059A5.255,5.255,0,0,1,129.624-11.066Zm.022,1.144a4.13,4.13,0,0,0-2.915,1.045,4.259,4.259,0,0,0-1.309,2.827h8.47A3.69,3.69,0,0,0,132.7-8.855,4.353,4.353,0,0,0,129.646-9.922ZM143.77-1.43l.418,1.056A5.188,5.188,0,0,1,141.944.2a2.894,2.894,0,0,1-2.376-.891,4.167,4.167,0,0,1-.726-2.673v-6.38h-2.288v-1.122h2.288v-3.124l1.232-.132v3.256h3.63v1.122h-3.63v6.38a3.216,3.216,0,0,0,.418,1.8,1.7,1.7,0,0,0,1.518.616A3.993,3.993,0,0,0,143.77-1.43ZM147.686-13.5a1,1,0,0,1-.726.275.967.967,0,0,1-.715-.275.967.967,0,0,1-.275-.715.921.921,0,0,1,.286-.693.977.977,0,0,1,.7-.275,1,1,0,0,1,.726.275.921.921,0,0,1,.286.693A.947.947,0,0,1,147.686-13.5ZM146.344,0V-10.868H147.6V0ZM163.7-11.022a4.19,4.19,0,0,1,3.212,1.243,4.834,4.834,0,0,1,1.166,3.443V0h-1.254V-6.248a3.949,3.949,0,0,0-.814-2.673,2.925,2.925,0,0,0-2.332-.935,3.239,3.239,0,0,0-2.5,1.067,3.833,3.833,0,0,0-.979,2.7V0H158.95V-6.248a3.949,3.949,0,0,0-.814-2.673,2.925,2.925,0,0,0-2.332-.935,3.214,3.214,0,0,0-2.475,1.067,3.833,3.833,0,0,0-.979,2.7V0H151.1V-10.868h1.144l.022,1.826a3.971,3.971,0,0,1,3.586-1.98,4.332,4.332,0,0,1,2.409.649A3.617,3.617,0,0,1,159.7-8.536a4.418,4.418,0,0,1,1.65-1.837A4.406,4.406,0,0,1,163.7-11.022ZM182.8.264a8.864,8.864,0,0,1-3.553-.737,7.258,7.258,0,0,1-2.739-1.969l.814-.924a5.853,5.853,0,0,0,2.332,1.727,7.7,7.7,0,0,0,3.146.671,6.416,6.416,0,0,0,3.476-.814A2.515,2.515,0,0,0,187.55-4,2.234,2.234,0,0,0,186.483-6a11.714,11.714,0,0,0-3.861-1.221,10.6,10.6,0,0,1-4.433-1.551,3.351,3.351,0,0,1-1.309-2.827,3.442,3.442,0,0,1,1.606-2.948,7.189,7.189,0,0,1,4.2-1.122,7.353,7.353,0,0,1,5.5,2.134l-.748.924a6.374,6.374,0,0,0-4.774-1.87,5.881,5.881,0,0,0-3.256.8,2.42,2.42,0,0,0-1.232,2.1,2.213,2.213,0,0,0,1.034,1.947,10.618,10.618,0,0,0,3.608,1.2,12.241,12.241,0,0,1,4.719,1.584,3.243,3.243,0,0,1,1.331,2.794A3.667,3.667,0,0,1,187.231-.9,7.512,7.512,0,0,1,182.8.264ZM192.9-13.5a1,1,0,0,1-.726.275.967.967,0,0,1-.715-.275.967.967,0,0,1-.275-.715.921.921,0,0,1,.286-.693.977.977,0,0,1,.7-.275,1,1,0,0,1,.726.275.921.921,0,0,1,.286.693A.947.947,0,0,1,192.9-13.5ZM191.554,0V-10.868h1.254V0Zm8.624.2a7.243,7.243,0,0,1-2.684-.5A5.888,5.888,0,0,1,195.4-1.65l.7-.9a4.66,4.66,0,0,0,1.771,1.177,6.275,6.275,0,0,0,2.321.429,4.4,4.4,0,0,0,2.354-.55,1.656,1.656,0,0,0,.88-1.452,1.407,1.407,0,0,0-.726-1.276,8.714,8.714,0,0,0-2.684-.792,8.122,8.122,0,0,1-3.278-1.067,2.278,2.278,0,0,1-.968-1.969,2.534,2.534,0,0,1,1.21-2.189,5.694,5.694,0,0,1,3.256-.825,6.529,6.529,0,0,1,4.2,1.386l-.66.9a5.526,5.526,0,0,0-3.5-1.166,4.873,4.873,0,0,0-2.431.495,1.543,1.543,0,0,0-.847,1.4,1.317,1.317,0,0,0,.671,1.2,7.866,7.866,0,0,0,2.5.715,8.793,8.793,0,0,1,3.476,1.144,2.393,2.393,0,0,1,1.012,2.068A2.64,2.64,0,0,1,203.434-.66,5.59,5.59,0,0,1,200.178.2ZM213.554-1.43l.418,1.056A5.188,5.188,0,0,1,211.728.2a2.894,2.894,0,0,1-2.376-.891,4.167,4.167,0,0,1-.726-2.673v-6.38h-2.288v-1.122h2.288v-3.124l1.232-.132v3.256h3.63v1.122h-3.63v6.38a3.216,3.216,0,0,0,.418,1.8,1.7,1.7,0,0,0,1.518.616A3.993,3.993,0,0,0,213.554-1.43Zm7.172-9.636a5.336,5.336,0,0,1,4.191,1.683A5.674,5.674,0,0,1,226.2-4.95h-9.68a4.328,4.328,0,0,0,1.309,2.926,4.225,4.225,0,0,0,3,1.078,5.665,5.665,0,0,0,2.2-.44,3.778,3.778,0,0,0,1.606-1.166l.858.748A5.119,5.119,0,0,1,223.487-.3a6.646,6.646,0,0,1-2.673.539A5.372,5.372,0,0,1,216.8-1.342a5.6,5.6,0,0,1-1.551-4.092,5.6,5.6,0,0,1,1.518-4.059A5.255,5.255,0,0,1,220.726-11.066Zm.022,1.144a4.13,4.13,0,0,0-2.915,1.045,4.259,4.259,0,0,0-1.309,2.827h8.47a3.69,3.69,0,0,0-1.188-2.805A4.353,4.353,0,0,0,220.748-9.922Zm20.7-1.1a4.19,4.19,0,0,1,3.212,1.243,4.834,4.834,0,0,1,1.166,3.443V0h-1.254V-6.248a3.949,3.949,0,0,0-.814-2.673,2.925,2.925,0,0,0-2.332-.935,3.239,3.239,0,0,0-2.5,1.067,3.833,3.833,0,0,0-.979,2.7V0H236.7V-6.248a3.949,3.949,0,0,0-.814-2.673,2.925,2.925,0,0,0-2.332-.935,3.214,3.214,0,0,0-2.475,1.067,3.833,3.833,0,0,0-.979,2.7V0h-1.254V-10.868h1.144l.022,1.826a3.971,3.971,0,0,1,3.586-1.98,4.332,4.332,0,0,1,2.409.649,3.617,3.617,0,0,1,1.441,1.837,4.418,4.418,0,0,1,1.65-1.837A4.406,4.406,0,0,1,241.45-11.022Zm9.064-2.475a1,1,0,0,1-.726.275.967.967,0,0,1-.715-.275.967.967,0,0,1-.275-.715.921.921,0,0,1,.286-.693.977.977,0,0,1,.7-.275,1,1,0,0,1,.726.275.921.921,0,0,1,.286.693A.947.947,0,0,1,250.514-13.5ZM249.172,0V-10.868h1.254V0Z" transform="translate(-2.156 15.664)" fill="#fff"/></svg>